<?xml version="1.0" encoding="utf-8"?>
<!-- Generator: Adobe Illustrator 21.0.2, SVG Export Plug-In . SVG Version: 6.00 Build 0)  -->
<svg version="1.1" id="Layer_1" xmlns="http://www.w3.org/2000/svg" xmlns:xlink="http://www.w3.org/1999/xlink" x="0px" y="0px"
	 width="336.341px" height="125.98px" viewBox="0 0 336.341 125.98" enable-background="new 0 0 336.341 125.98"
	 xml:space="preserve">
<g>
	<path fill="#19658B" d="M127.192,48.932V11.3h12.35c3.065,0,5.383,1.111,6.954,3.333c1.216,1.721,1.824,3.89,1.824,6.505
		c0,3.549-1.166,6.255-3.496,8.118c1.646,0.896,2.888,2.069,3.724,3.521c0.836,1.451,1.254,3.396,1.254,5.832
		c0,3.37-0.887,5.933-2.66,7.688s-4.205,2.634-7.296,2.634H127.192z M132.891,26.514h5.396c2.812,0,4.218-1.361,4.218-4.086
		c0-1.254-0.329-2.212-0.988-2.876c-0.658-0.662-1.608-0.994-2.85-0.994h-5.776V26.514z M132.891,41.674h6.954
		c2.762,0,4.143-1.397,4.143-4.193c0-2.723-1.444-4.085-4.332-4.085h-6.765V41.674z"/>
	<path fill="#19658B" d="M179.65,43.905c-2.698,3.781-6.074,5.672-10.127,5.672c-4.054,0-7.417-1.882-10.089-5.646
		c-2.674-3.763-4.01-8.367-4.01-13.815c0-5.411,1.35-10.008,4.047-13.79c2.698-3.78,6.074-5.671,10.128-5.671
		c4.053,0,7.415,1.881,10.089,5.645c2.672,3.763,4.009,8.369,4.009,13.816C183.697,35.528,182.347,40.124,179.65,43.905z
		 M163.823,38.502c1.52,2.294,3.445,3.441,5.776,3.441c2.33,0,4.242-1.138,5.737-3.414c1.495-2.275,2.242-5.08,2.242-8.413
		c0-3.297-0.76-6.093-2.28-8.387c-1.52-2.293-3.445-3.44-5.775-3.44c-2.331,0-4.244,1.138-5.738,3.413
		c-1.495,2.276-2.242,5.081-2.242,8.414C161.543,33.414,162.302,36.209,163.823,38.502z"/>
	<path fill="#19658B" d="M190.88,48.932V11.3h5.396l12.464,23.171V11.3h5.776v37.632h-4.979l-12.882-23.923v23.923H190.88z"/>
	<path fill="#19658B" d="M223.14,48.932V11.3h5.852v37.632H223.14z"/>
	<path fill="#19658B" d="M237.619,48.932V11.3h20.254v7.526H243.47v8.011h12.692v7.526H243.47v14.568H237.619z"/>
	<path fill="#19658B" d="M264.788,48.932V11.3h5.852v37.632H264.788z"/>
	<path fill="#19658B" d="M291.73,49.577c-3.901,0-7.15-1.873-9.747-5.618c-2.598-3.745-3.896-8.359-3.896-13.843
		c0-5.447,1.305-10.054,3.914-13.816c2.609-3.764,5.929-5.645,9.956-5.645c2.305,0,4.243,0.528,5.814,1.586
		c1.57,1.057,3.064,2.571,4.483,4.542l-3.496,5.699c-1.14-1.47-2.21-2.535-3.211-3.199c-1.001-0.663-2.21-0.994-3.629-0.994
		c-2.229,0-4.072,1.138-5.528,3.413c-1.457,2.276-2.186,5.081-2.186,8.414c0,3.298,0.729,6.093,2.186,8.386
		c1.456,2.294,3.299,3.441,5.528,3.441c1.419,0,2.647-0.358,3.687-1.075c1.038-0.717,2.141-1.828,3.306-3.334l3.724,5.646
		c-1.443,2.187-3.008,3.799-4.692,4.838C296.257,49.057,294.187,49.577,291.73,49.577z"/>
	<path fill="#19658B" d="M331.573,43.905c-2.698,3.781-6.074,5.672-10.127,5.672c-4.054,0-7.417-1.882-10.089-5.646
		c-2.674-3.763-4.01-8.367-4.01-13.815c0-5.411,1.35-10.008,4.047-13.79c2.698-3.78,6.074-5.671,10.128-5.671
		c4.053,0,7.415,1.881,10.089,5.645c2.672,3.763,4.009,8.369,4.009,13.816C335.62,35.528,334.27,40.124,331.573,43.905z
		 M315.746,38.502c1.52,2.294,3.445,3.441,5.776,3.441c2.33,0,4.242-1.138,5.737-3.414c1.495-2.275,2.242-5.08,2.242-8.413
		c0-3.297-0.76-6.093-2.28-8.387c-1.52-2.293-3.445-3.44-5.775-3.44c-2.331,0-4.244,1.138-5.738,3.413
		c-1.495,2.276-2.242,5.081-2.242,8.414C313.465,33.414,314.225,36.209,315.746,38.502z"/>
	<path fill="#19658B" d="M127.192,113.443V75.811h12.35c3.065,0,5.383,1.111,6.954,3.333c1.216,1.721,1.824,3.89,1.824,6.505
		c0,3.549-1.166,6.255-3.496,8.118c1.646,0.896,2.888,2.069,3.724,3.521c0.836,1.451,1.254,3.396,1.254,5.832
		c0,3.37-0.887,5.933-2.66,7.688s-4.205,2.634-7.296,2.634H127.192z M132.891,91.025h5.396c2.812,0,4.218-1.361,4.218-4.086
		c0-1.254-0.329-2.212-0.988-2.876c-0.658-0.662-1.608-0.994-2.85-0.994h-5.776V91.025z M132.891,106.185h6.954
		c2.762,0,4.143-1.397,4.143-4.193c0-2.723-1.444-4.085-4.332-4.085h-6.765V106.185z"/>
	<path fill="#19658B" d="M151.815,113.443l11.399-37.9h5.396l11.4,37.9h-6.118l-2.433-8.44h-11.248l-2.432,8.44H151.815z
		 M162.303,97.691h7.067l-3.534-12.203L162.303,97.691z"/>
	<path fill="#19658B" d="M183.584,113.443V75.811h5.396l12.464,23.171V75.811h5.776v37.632h-4.979L189.359,89.52v23.923H183.584z"/>
	<path fill="#19658B" d="M225.535,114.089c-3.901,0-7.15-1.873-9.747-5.618c-2.598-3.745-3.896-8.359-3.896-13.843
		c0-5.447,1.305-10.054,3.914-13.816c2.609-3.764,5.929-5.645,9.956-5.645c2.305,0,4.243,0.528,5.814,1.586
		c1.57,1.057,3.064,2.571,4.483,4.542l-3.496,5.699c-1.14-1.47-2.21-2.535-3.211-3.199c-1.001-0.663-2.21-0.994-3.629-0.994
		c-2.229,0-4.072,1.138-5.528,3.413c-1.457,2.276-2.186,5.081-2.186,8.414c0,3.298,0.729,6.093,2.186,8.386
		c1.456,2.294,3.299,3.441,5.528,3.441c1.419,0,2.647-0.358,3.687-1.075c1.038-0.717,2.141-1.828,3.306-3.334l3.724,5.646
		c-1.443,2.187-3.008,3.799-4.692,4.838C230.062,113.568,227.992,114.089,225.535,114.089z"/>
	<path fill="#19658B" d="M238.302,113.443l11.399-37.9h5.396l11.4,37.9h-6.118l-2.433-8.44H246.7l-2.432,8.44H238.302z
		 M248.791,97.691h7.067l-3.534-12.203L248.791,97.691z"/>
	<path fill="#19658B" d="M270.07,113.443V75.811h12.159c3.369,0,5.953,1.272,7.752,3.817c1.521,2.15,2.28,5.053,2.28,8.709
		c0,5.771-1.899,9.659-5.7,11.666l6.498,13.439h-6.84l-5.775-12.042h-4.522v12.042H270.07z M275.922,94.09h5.928
		c1.419,0,2.521-0.492,3.307-1.479c0.784-0.985,1.178-2.302,1.178-3.951c0-1.756-0.405-3.091-1.216-4.005
		c-0.812-0.914-1.938-1.371-3.382-1.371h-5.814V94.09z"/>
	<path fill="#19658B" d="M297.278,113.443V75.811h5.852v37.632H297.278z"/>
	<path fill="#19658B" d="M332.295,108.417c-2.698,3.781-6.074,5.672-10.127,5.672c-4.054,0-7.417-1.882-10.089-5.646
		c-2.674-3.763-4.01-8.367-4.01-13.815c0-5.411,1.35-10.008,4.047-13.79c2.698-3.78,6.074-5.671,10.128-5.671
		c4.053,0,7.415,1.881,10.089,5.645c2.672,3.763,4.009,8.369,4.009,13.816C336.341,100.04,334.992,104.636,332.295,108.417z
		 M316.467,103.014c1.52,2.294,3.445,3.441,5.776,3.441c2.33,0,4.242-1.138,5.737-3.414c1.495-2.275,2.242-5.08,2.242-8.413
		c0-3.297-0.76-6.093-2.28-8.387c-1.52-2.293-3.445-3.44-5.775-3.44c-2.331,0-4.244,1.138-5.738,3.413
		c-1.495,2.276-2.242,5.081-2.242,8.414C314.187,97.926,314.947,100.721,316.467,103.014z"/>
</g>
<g>
	<g>
		<defs>
			<rect id="SVGID_1_" width="107.458" height="125.98"/>
		</defs>
		<clipPath id="SVGID_2_">
			<use xlink:href="#SVGID_1_"  overflow="visible"/>
		</clipPath>
		<path clip-path="url(#SVGID_2_)" fill="#19658B" d="M106.598,112.048c-1.407-3.438-2.839-6.878-4.402-10.264
			c-1.38-3.022-3.152-3.908-6.461-3.152c-4.194,0.964-8.31,2.24-12.504,3.1c-8.103,1.693-16.229,1.85-24.228-0.677
			c-10.03-3.153-15.369-10.42-18.651-19.799h27.196c2.136,0,3.855-1.72,3.855-3.855v-8.571c0-2.137-1.72-3.855-3.855-3.855H37.748
			c0-2.396-0.027-4.69,0-6.982h29.801c2.136,0,3.855-1.72,3.855-3.855v-8.571c0-2.136-1.72-3.855-3.855-3.855h-26.05
			c0-0.105,0-0.209,0.052-0.261c3.125-7.112,7.684-12.816,15.161-15.787c8.701-3.438,17.584-3.36,26.545-1.51
			c4.246,0.859,8.414,2.161,12.66,3.125c3.1,0.704,4.898-0.208,6.226-3.1c1.536-3.334,2.943-6.721,4.35-10.134
			c1.329-3.204,0.547-5.47-2.474-7.241c-0.755-0.443-1.538-0.808-2.346-1.121C89.119,0.786,76.172-1.037,62.807,1.099
			C53.403,2.611,44.624,5.84,37.044,11.728c-9.562,7.398-15.762,17.167-19.356,28.656l-0.443,1.328H3.855
			C1.72,41.712,0,43.431,0,45.567v8.571c0,2.136,1.72,3.855,3.855,3.855h10.55v6.982H3.855C1.72,64.975,0,66.694,0,68.831v8.571
			c0,2.136,1.72,3.855,3.855,3.855h12.712c0.964,3.125,1.772,6.304,2.995,9.3c6.435,15.526,17.22,26.572,33.45,31.834
			c13.416,4.35,26.936,4.22,40.456,0.495c3.517-0.964,7.008-2.215,10.343-3.751C107.041,117.648,107.875,115.148,106.598,112.048
			L106.598,112.048z M106.598,112.048"/>
	</g>
</g>
</svg>
