<?xml version="1.0" encoding="iso-8859-1"?>
<!-- Generator: Adobe Illustrator 19.0.0, SVG Export Plug-In . SVG Version: 6.00 Build 0)  -->
<svg version="1.1" id="Capa_1" xmlns="http://www.w3.org/2000/svg" xmlns:xlink="http://www.w3.org/1999/xlink" x="0px" y="0px"
	 viewBox="0 0 512 512" style="enable-background:new 0 0 512 512;" xml:space="preserve">
<path style="fill:#F3E8D6;" d="M450.571,244.495c-4.358,0-7.89-3.532-7.89-7.89c0-4.357,3.532-7.89,7.89-7.89
	c11.504,0,20.864-9.359,20.864-20.864V72c0-4.357,3.532-7.89,7.89-7.89s7.89,3.532,7.89,7.89v135.852
	C487.214,228.057,470.776,244.495,450.571,244.495z"/>
<path style="fill:#D8CAB8;" d="M469.682,216.195c-3.227,7.36-10.573,12.52-19.111,12.52c-4.358,0-7.89,3.532-7.89,7.89
	c0,4.357,3.532,7.89,7.89,7.89c6.998,0,13.543-1.975,19.111-5.392V216.195z"/>
<path style="fill:#C55C05;" d="M486.759,512H23.872c-3.834,0-6.942-3.108-6.942-6.942v-19.552c0-1.776,1.439-3.215,3.215-3.215
	h470.341c1.776,0,3.215,1.439,3.215,3.215v19.552C493.702,508.892,490.593,512,486.759,512z"/>
<path style="fill:#AF4E05;" d="M436.194,482.29v22.406c0,4.033-3.27,7.303-7.303,7.303h57.508c4.033,0,7.303-3.27,7.303-7.303
	v-19.191c0-1.776-1.439-3.215-3.215-3.215H436.194z"/>
<g>
	<path style="fill:#D8CAB8;" d="M475.818,436.109h-22.442c-4.358,0-7.89-3.532-7.89-7.89c0-4.357,3.532-7.89,7.89-7.89h22.442
		c4.358,0,7.89,3.532,7.89,7.89S480.176,436.109,475.818,436.109z"/>
	<path style="fill:#D8CAB8;" d="M475.818,452.941c-4.358,0-7.89-3.532-7.89-7.89v-35.066c0-4.357,3.532-7.89,7.89-7.89
		s7.89,3.532,7.89,7.89v35.066C483.708,449.408,480.176,452.941,475.818,452.941z"/>
</g>
<rect x="38.2" y="189.37" style="fill:#F3E8D6;" width="415.18" height="292.92"/>
<path style="fill:#3B4F66;" d="M377.258,445.051H110.153c-20.567,0-37.239,16.673-37.239,37.239l0,0h341.583l0,0
	C414.497,461.724,397.824,445.051,377.258,445.051z"/>
<path style="fill:#253A4C;" d="M93.893,458.155h277.431c13.926,0,25.381,10.577,26.771,24.135h16.402
	c0-20.567-16.673-37.239-37.239-37.239H110.153c-12.647,0-23.814,6.31-30.544,15.947C84.008,459.169,88.831,458.155,93.893,458.155z
	"/>
<path style="fill:#F3E8D6;" d="M419.305,77.26H309.924c-7.147,0-12.941-5.794-12.941-12.941V53.895
	c0-6.173-5.004-11.177-11.177-11.177l0,0c-6.1,0-11.045-4.945-11.045-11.045l0,0C274.76,14.18,260.58,0,243.088,0h-86.035
	c-17.492,0-31.672,14.18-31.672,31.672l0,0c0,6.1-4.945,11.045-11.045,11.045h-2.893c-6.173,0-11.177,5.004-11.177,11.177v10.424
	c0,7.147-5.794,12.941-12.941,12.941H72.27c-18.817,0-34.071,15.254-34.071,34.071v78.038h415.177V111.33
	C453.376,92.514,438.122,77.26,419.305,77.26z"/>
<rect x="38.2" y="176.02" style="fill:#D8CAB8;" width="415.18" height="13.35"/>
<path style="fill:#EA3939;" d="M243.088,0h-86.035c-17.492,0-31.672,14.18-31.672,31.672l0,0c0,6.1-4.945,11.045-11.045,11.045
	h-2.893c-6.173,0-11.177,5.004-11.177,11.177v10.424c0,7.147-5.794,12.941-12.941,12.941h222.6c-7.147,0-12.941-5.794-12.941-12.941
	V53.895c0-6.173-5.004-11.177-11.177-11.177c-6.1,0-11.045-4.945-11.045-11.045l0,0C274.76,14.18,260.58,0,243.088,0z"/>
<path style="fill:#C55C05;" d="M481.436,77.26h-1.417c-7.53,0-13.634-6.104-13.634-13.634V22.453c0-7.53,6.104-13.634,13.634-13.634
	h1.417c7.53,0,13.634,6.104,13.634,13.634v41.173C495.07,71.156,488.966,77.26,481.436,77.26z"/>
<path style="fill:#AF4E05;" d="M480.727,8.819L480.727,8.819c-2.078,0-4.047,0.451-5.83,1.246c5.013,2.235,8.513,7.253,8.513,13.097
	v39.756c0,5.843-3.5,10.861-8.513,13.097c1.783,0.795,3.752,1.246,5.829,1.246l0,0c7.921,0,14.343-6.421,14.343-14.343V23.162
	C495.07,15.241,488.648,8.819,480.727,8.819z"/>
<rect x="120.25" y="101.06" style="fill:#FDC74F;" width="155.69" height="58.51"/>
<rect x="172.15" y="101.06" style="fill:#6186E4;" width="51.897" height="58.51"/>
<g>
	<path style="fill:#F3E8D6;" d="M237.021,32.844h-75.742c-4.358,0-7.89-3.532-7.89-7.89s3.532-7.89,7.89-7.89h75.742
		c4.358,0,7.89,3.532,7.89,7.89S241.379,32.844,237.021,32.844z"/>
	<path style="fill:#F3E8D6;" d="M260.153,63.877H138.147c-4.358,0-7.89-3.532-7.89-7.89s3.532-7.89,7.89-7.89h122.006
		c4.358,0,7.89,3.532,7.89,7.89S264.511,63.877,260.153,63.877z"/>
</g>
<path style="fill:#D8CAB8;" d="M403.933,189.369h-52.238v-26.868c0-13.6,11.025-24.625,24.625-24.625h2.988
	c13.6,0,24.625,11.025,24.625,24.625V189.369z"/>
<path id="SVGCleanerId_0" style="fill:#3B4F66;" d="M112.422,409.852L112.422,409.852c-15.701,0-28.428-12.728-28.428-28.428
	V247.687c0-15.7,12.728-28.428,28.428-28.428l0,0c15.7,0,28.428,12.728,28.428,28.428v133.737
	C140.851,397.124,128.123,409.852,112.422,409.852z"/>
<g>
	<path id="SVGCleanerId_0_1_" style="fill:#3B4F66;" d="M112.422,409.852L112.422,409.852c-15.701,0-28.428-12.728-28.428-28.428
		V247.687c0-15.7,12.728-28.428,28.428-28.428l0,0c15.7,0,28.428,12.728,28.428,28.428v133.737
		C140.851,397.124,128.123,409.852,112.422,409.852z"/>
</g>
<path style="fill:#253A4C;" d="M112.422,219.259L112.422,219.259c-9.556,0-18.004,4.72-23.158,11.95
	c2.231-0.562,4.565-0.864,6.97-0.864l0,0c15.7,0,28.428,12.728,28.428,28.428V392.51c0,6.145-1.956,11.829-5.27,16.478
	c12.33-3.108,21.459-14.269,21.459-27.564V247.687C140.851,231.987,128.123,219.259,112.422,219.259z"/>
<path style="fill:#FF8DC8;" d="M83.994,293.008v88.416c0,15.7,12.728,28.428,28.428,28.428l0,0c15.7,0,28.428-12.728,28.428-28.428
	v-88.416H83.994z"/>
<g>
	<rect x="91.62" y="297.77" style="fill:#FFBDE7;" width="41.596" height="8.385"/>
	<rect x="91.62" y="315.69" style="fill:#FFBDE7;" width="41.596" height="8.385"/>
	<rect x="91.62" y="333.61" style="fill:#FFBDE7;" width="41.596" height="8.385"/>
	<rect x="91.62" y="351.53" style="fill:#FFBDE7;" width="41.596" height="8.385"/>
	<rect x="91.62" y="369.45" style="fill:#FFBDE7;" width="41.596" height="8.385"/>
	<rect x="91.54" y="387.37" style="fill:#FFBDE7;" width="41.596" height="8.385"/>
	<path style="fill:#FFBDE7;" d="M96.975,405.292c4.447,2.883,9.748,4.559,15.442,4.559s10.995-1.677,15.442-4.559H96.975z"/>
</g>
<path style="fill:#3B4F66;" d="M201.656,409.852L201.656,409.852c-15.701,0-28.428-12.728-28.428-28.428V247.687
	c0-15.7,12.728-28.428,28.428-28.428l0,0c15.7,0,28.428,12.728,28.428,28.428v133.737
	C230.084,397.124,217.356,409.852,201.656,409.852z"/>
<path style="fill:#253A4C;" d="M201.656,219.259L201.656,219.259c-9.556,0-18.004,4.72-23.158,11.95
	c2.231-0.562,4.565-0.864,6.97-0.864l0,0c15.7,0,28.428,12.728,28.428,28.428V392.51c0,6.145-1.956,11.829-5.27,16.478
	c12.33-3.108,21.459-14.269,21.459-27.564V247.687C230.084,231.987,217.357,219.259,201.656,219.259z"/>
<path style="fill:#3B4F66;" d="M290.89,409.852L290.89,409.852c-15.701,0-28.428-12.728-28.428-28.428V247.687
	c0-15.7,12.728-28.428,28.428-28.428l0,0c15.7,0,28.428,12.728,28.428,28.428v133.737
	C319.318,397.124,306.59,409.852,290.89,409.852z"/>
<path style="fill:#77D057;" d="M173.228,310.927v70.496c0,15.7,12.728,28.428,28.428,28.428s28.428-12.728,28.428-28.428v-70.496
	H173.228z"/>
<g>
	<rect x="180.86" y="315.69" style="fill:#ABFF9C;" width="41.596" height="8.385"/>
	<rect x="180.86" y="333.61" style="fill:#ABFF9C;" width="41.596" height="8.385"/>
	<rect x="180.86" y="351.53" style="fill:#ABFF9C;" width="41.596" height="8.385"/>
	<rect x="180.86" y="369.45" style="fill:#ABFF9C;" width="41.596" height="8.385"/>
	<rect x="180.86" y="387.37" style="fill:#ABFF9C;" width="41.596" height="8.385"/>
	<path style="fill:#ABFF9C;" d="M186.296,405.292c4.447,2.883,9.748,4.559,15.442,4.559s10.995-1.677,15.442-4.559H186.296z"/>
</g>
<path style="fill:#3B4F66;" d="M380.123,409.852L380.123,409.852c-15.701,0-28.428-12.728-28.428-28.428V247.687
	c0-15.7,12.728-28.428,28.428-28.428l0,0c15.701,0,28.428,12.728,28.428,28.428v133.737
	C408.551,397.124,395.824,409.852,380.123,409.852z"/>
<g>
	<path style="fill:#253A4C;" d="M290.89,219.259c-9.556,0-18.004,4.72-23.158,11.95c2.23-0.562,4.564-0.864,6.97-0.864l0,0
		c15.7,0,28.428,12.728,28.428,28.428V392.51c0,6.145-1.956,11.829-5.27,16.478c12.33-3.108,21.459-14.269,21.459-27.564V247.687
		C319.318,231.987,306.59,219.259,290.89,219.259z"/>
	<path style="fill:#253A4C;" d="M380.123,219.259L380.123,219.259c-9.556,0-18.004,4.72-23.158,11.95
		c2.23-0.562,4.565-0.864,6.97-0.864c15.701,0,28.428,12.728,28.428,28.428V392.51c0,6.145-1.956,11.829-5.27,16.478
		c12.331-3.108,21.459-14.269,21.459-27.564V247.687C408.551,231.987,395.824,219.259,380.123,219.259z"/>
</g>
<path style="fill:#FDC74F;" d="M262.461,257.169v124.255c0,15.7,12.728,28.428,28.428,28.428l0,0
	c15.7,0,28.428-12.728,28.428-28.428V257.169H262.461z"/>
<g>
	<rect x="270.09" y="297.77" style="fill:#FCE6AC;" width="41.596" height="8.385"/>
	<rect x="270.09" y="279.86" style="fill:#FCE6AC;" width="41.596" height="8.385"/>
	<rect x="270.09" y="261.94" style="fill:#FCE6AC;" width="41.596" height="8.385"/>
	<rect x="270.09" y="315.69" style="fill:#FCE6AC;" width="41.596" height="8.385"/>
	<rect x="270.09" y="333.61" style="fill:#FCE6AC;" width="41.596" height="8.385"/>
	<rect x="270.09" y="351.53" style="fill:#FCE6AC;" width="41.596" height="8.385"/>
	<rect x="270.09" y="369.45" style="fill:#FCE6AC;" width="41.596" height="8.385"/>
	<rect x="270.09" y="387.37" style="fill:#FCE6AC;" width="41.596" height="8.385"/>
	<path style="fill:#FCE6AC;" d="M275.529,405.292c4.447,2.883,9.748,4.559,15.442,4.559s10.995-1.677,15.442-4.559H275.529z"/>
</g>
<path style="fill:#00C6C8;" d="M351.695,293.008v88.416c0,15.7,12.728,28.428,28.428,28.428l0,0c15.7,0,28.428-12.728,28.428-28.428
	v-88.416H351.695z"/>
<g>
	<rect x="359.32" y="315.69" style="fill:#86EFEF;" width="41.596" height="8.385"/>
	<rect x="359.32" y="297.77" style="fill:#86EFEF;" width="41.596" height="8.385"/>
	<rect x="359.32" y="333.61" style="fill:#86EFEF;" width="41.596" height="8.385"/>
	<rect x="359.32" y="351.53" style="fill:#86EFEF;" width="41.596" height="8.385"/>
	<rect x="359.32" y="369.45" style="fill:#86EFEF;" width="41.596" height="8.385"/>
	<rect x="359.32" y="387.37" style="fill:#86EFEF;" width="41.596" height="8.385"/>
	<path style="fill:#86EFEF;" d="M364.763,405.292c4.447,2.883,9.748,4.559,15.442,4.559s10.995-1.677,15.442-4.559H364.763z"/>
</g>
<circle style="fill:#ED7EC3;" cx="351.37" cy="107.37" r="7.89"/>
<circle style="fill:#467ED3;" cx="377.81" cy="107.37" r="7.89"/>
<circle style="fill:#ED7EC3;" cx="404.25" cy="107.37" r="7.89"/>
<g>
	<path style="fill:#EA3939;" d="M148.143,119.595l2.098,4.252c0.258,0.524,0.758,0.887,1.336,0.971l4.692,0.682
		c1.455,0.211,2.036,2,0.983,3.026l-3.395,3.31c-0.418,0.408-0.609,0.995-0.51,1.57l0.802,4.673c0.249,1.449-1.273,2.555-2.574,1.87
		l-4.197-2.206c-0.517-0.272-1.134-0.272-1.651,0l-4.197,2.206c-1.302,0.684-2.823-0.421-2.574-1.87l0.802-4.673
		c0.099-0.576-0.092-1.163-0.51-1.57l-3.395-3.31c-1.053-1.026-0.472-2.815,0.983-3.026l4.692-0.682
		c0.578-0.084,1.077-0.447,1.336-0.971l2.098-4.252C145.611,118.276,147.492,118.276,148.143,119.595z"/>
	<path style="fill:#EA3939;" d="M250.973,119.595l2.098,4.252c0.258,0.524,0.758,0.887,1.336,0.971l4.692,0.682
		c1.455,0.211,2.036,2,0.983,3.026l-3.395,3.31c-0.418,0.408-0.609,0.995-0.51,1.57l0.802,4.673c0.249,1.449-1.273,2.555-2.574,1.87
		l-4.197-2.206c-0.517-0.272-1.134-0.272-1.651,0l-4.197,2.206c-1.302,0.684-2.823-0.421-2.574-1.87l0.802-4.673
		c0.099-0.576-0.092-1.163-0.51-1.57l-3.395-3.31c-1.053-1.026-0.472-2.815,0.983-3.026l4.692-0.682
		c0.578-0.084,1.077-0.447,1.336-0.971l2.098-4.252C248.441,118.276,250.322,118.276,250.973,119.595z"/>
</g>
<path style="fill:#FDC74F;" d="M199.689,119.595l2.098,4.252c0.258,0.524,0.758,0.887,1.336,0.971l4.692,0.682
	c1.455,0.211,2.036,2,0.983,3.026l-3.395,3.31c-0.418,0.408-0.609,0.995-0.51,1.57l0.802,4.673c0.249,1.449-1.273,2.555-2.574,1.87
	l-4.197-2.206c-0.517-0.272-1.134-0.272-1.651,0l-4.197,2.206c-1.302,0.684-2.823-0.421-2.574-1.87l0.802-4.673
	c0.099-0.576-0.092-1.163-0.51-1.57l-3.395-3.31c-1.053-1.026-0.472-2.815,0.983-3.026l4.692-0.682
	c0.578-0.084,1.077-0.447,1.336-0.971l2.098-4.252C197.158,118.276,199.038,118.276,199.689,119.595z"/>
<g>
</g>
<g>
</g>
<g>
</g>
<g>
</g>
<g>
</g>
<g>
</g>
<g>
</g>
<g>
</g>
<g>
</g>
<g>
</g>
<g>
</g>
<g>
</g>
<g>
</g>
<g>
</g>
<g>
</g>
</svg>
